<?xml version="1.0" encoding="utf-8" standalone="no"?>
<!DOCTYPE svg PUBLIC "-//W3C//DTD SVG 1.0//EN" "http://www.w3.org/TR/SVG/DTD/svg11.dtd" >
<svg version="1.1" baseProfile="full"  width="380" height="380"  preserveAspectRatio="xMidYMid" xmlns="http://www.w3.org/2000/svg" >

<g lengthAdjust="spacingAndGlyphs" xml:space='preserve' >
<g  transform="translate(1.19,1.19)" >
<path d="
M0.0 0.0
L0.0 450
L450 450
L450 0.0
Z
" fill="black" fill-rule="nonzero" />
<line x1="10" y1="10" x2="10" y2="370" fill="none" stroke="silver" stroke-width="0.87px" stroke-linecap="square" />
<line x1="30" y1="10" x2="30" y2="370" fill="none" stroke="silver" stroke-width="0.25px" stroke-linecap="butt" />
<line x1="50" y1="10" x2="50" y2="370" fill="none" stroke="silver" stroke-width="0.25px" stroke-linecap="butt" />
<line x1="70" y1="10" x2="70" y2="370" fill="none" stroke="silver" stroke-width="0.25px" stroke-linecap="butt" />
<line x1="90" y1="10" x2="90" y2="370" fill="none" stroke="silver" stroke-width="0.25px" stroke-linecap="butt" />
<line x1="110" y1="10" x2="110" y2="370" fill="none" stroke="silver" stroke-width="0.25px" stroke-linecap="butt" />
<line x1="130" y1="10" x2="130" y2="370" fill="none" stroke="silver" stroke-width="0.25px" stroke-linecap="butt" />
<line x1="150" y1="10" x2="150" y2="370" fill="none" stroke="silver" stroke-width="0.25px" stroke-linecap="butt" />
<line x1="170" y1="10" x2="170" y2="370" fill="none" stroke="silver" stroke-width="0.25px" stroke-linecap="butt" />
<line x1="190" y1="10" x2="190" y2="370" fill="none" stroke="silver" stroke-width="0.25px" stroke-linecap="butt" />
<line x1="210" y1="10" x2="210" y2="370" fill="none" stroke="silver" stroke-width="0.25px" stroke-linecap="butt" />
<line x1="230" y1="10" x2="230" y2="370" fill="none" stroke="silver" stroke-width="0.25px" stroke-linecap="butt" />
<line x1="250" y1="10" x2="250" y2="370" fill="none" stroke="silver" stroke-width="0.25px" stroke-linecap="butt" />
<line x1="270" y1="10" x2="270" y2="370" fill="none" stroke="silver" stroke-width="0.25px" stroke-linecap="butt" />
<line x1="290" y1="10" x2="290" y2="370" fill="none" stroke="silver" stroke-width="0.25px" stroke-linecap="butt" />
<line x1="310" y1="10" x2="310" y2="370" fill="none" stroke="silver" stroke-width="0.25px" stroke-linecap="butt" />
<line x1="330" y1="10" x2="330" y2="370" fill="none" stroke="silver" stroke-width="0.25px" stroke-linecap="butt" />
<line x1="350" y1="10" x2="350" y2="370" fill="none" stroke="silver" stroke-width="0.25px" stroke-linecap="butt" />
<line x1="370" y1="10" x2="370" y2="370" fill="none" stroke="silver" stroke-width="0.87px" stroke-linecap="square" />
<line x1="10" y1="10" x2="370" y2="10" fill="none" stroke="silver" stroke-width="0.87px" stroke-linecap="square" />
<line x1="10" y1="30" x2="370" y2="30" fill="none" stroke="silver" stroke-width="0.25px" stroke-linecap="butt" />
<line x1="10" y1="50" x2="370" y2="50" fill="none" stroke="silver" stroke-width="0.25px" stroke-linecap="butt" />
<line x1="10" y1="70" x2="370" y2="70" fill="none" stroke="silver" stroke-width="0.25px" stroke-linecap="butt" />
<line x1="10" y1="90" x2="370" y2="90" fill="none" stroke="silver" stroke-width="0.25px" stroke-linecap="butt" />
<line x1="10" y1="110" x2="370" y2="110" fill="none" stroke="silver" stroke-width="0.25px" stroke-linecap="butt" />
<line x1="10" y1="130" x2="370" y2="130" fill="none" stroke="silver" stroke-width="0.25px" stroke-linecap="butt" />
<line x1="10" y1="150" x2="370" y2="150" fill="none" stroke="silver" stroke-width="0.25px" stroke-linecap="butt" />
<line x1="10" y1="170" x2="370" y2="170" fill="none" stroke="silver" stroke-width="0.25px" stroke-linecap="butt" />
<line x1="10" y1="190" x2="370" y2="190" fill="none" stroke="silver" stroke-width="0.25px" stroke-linecap="butt" />
<line x1="10" y1="210" x2="370" y2="210" fill="none" stroke="silver" stroke-width="0.25px" stroke-linecap="butt" />
<line x1="10" y1="230" x2="370" y2="230" fill="none" stroke="silver" stroke-width="0.25px" stroke-linecap="butt" />
<line x1="10" y1="250" x2="370" y2="250" fill="none" stroke="silver" stroke-width="0.25px" stroke-linecap="butt" />
<line x1="10" y1="270" x2="370" y2="270" fill="none" stroke="silver" stroke-width="0.25px" stroke-linecap="butt" />
<line x1="10" y1="290" x2="370" y2="290" fill="none" stroke="silver" stroke-width="0.25px" stroke-linecap="butt" />
<line x1="10" y1="310" x2="370" y2="310" fill="none" stroke="silver" stroke-width="0.25px" stroke-linecap="butt" />
<line x1="10" y1="330" x2="370" y2="330" fill="none" stroke="silver" stroke-width="0.25px" stroke-linecap="butt" />
<line x1="10" y1="350" x2="370" y2="350" fill="none" stroke="silver" stroke-width="0.25px" stroke-linecap="butt" />
<line x1="10" y1="370" x2="370" y2="370" fill="none" stroke="silver" stroke-width="0.87px" stroke-linecap="square" />

<circle cx="70" cy="70" r="2.2" fill="silver"/>
<circle cx="70" cy="190" r="2.2" fill="silver"/>
<circle cx="70" cy="310" r="2.2" fill="silver"/>
<circle cx="190" cy="70" r="2.2" fill="silver"/>
<circle cx="190" cy="190" r="2.2" fill="silver"/>
<circle cx="190" cy="310" r="2.2" fill="silver"/>
<circle cx="310" cy="70" r="2.2" fill="silver"/>
<circle cx="310" cy="190" r="2.2" fill="silver"/>
<circle cx="310" cy="310" r="2.2" fill="silver"/>

<circle cx="310" cy="30" r="9" fill="green"/>
<circle cx="70" cy="50" r="9" fill="blue"/>
<circle cx="90" cy="50" r="9" fill="blue"/>
<circle cx="110" cy="50" r="9" fill="green"/>
<circle cx="190" cy="50" r="9" fill="green"/>
<circle cx="250" cy="50" r="9" fill="blue"/>
<text x="290" y="55" style="stroke:none; font-family:MS Shell Dlg 2, sans-serif; text-anchor: middle; fill: red; font-size: 18px;">a</text>
<circle cx="310" cy="50" r="9" fill="blue"/>
<circle cx="330" cy="50" r="9" fill="blue"/>
<circle cx="50" cy="70" r="9" fill="blue"/>
<circle cx="90" cy="70" r="9" fill="green"/>
<circle cx="110" cy="70" r="9" fill="green"/>
<circle cx="330" cy="90" r="9" fill="blue"/>
<circle cx="50" cy="110" r="9" fill="blue"/>
<circle cx="310" cy="130" r="9" fill="green"/>
<circle cx="290" cy="150" r="9" fill="green"/>
<circle cx="250" cy="170" r="9" fill="blue"/>
<circle cx="290" cy="170" r="9" fill="blue"/>
<circle cx="310" cy="170" r="9" fill="green"/>
<circle cx="330" cy="170" r="9" fill="green"/>
<circle cx="70" cy="190" r="9" fill="green"/>
<text x="70" y="195" style="stroke:none; font-family:MS Shell Dlg 2, sans-serif; text-anchor: middle; fill:lime; font-size: 16px;">5</text>
<text x="90" y="195" style="stroke:none; font-family:MS Shell Dlg 2, sans-serif; text-anchor: middle; fill: red; font-size: 18px;">b</text>
<circle cx="290" cy="190" r="9" fill="blue"/>
<circle cx="310" cy="190" r="9" fill="blue"/>
<circle cx="110" cy="210" r="9" fill="green"/>
<text x="110" y="215" style="stroke:none; font-family:MS Shell Dlg 2, sans-serif; text-anchor: middle; fill:lime; font-size: 16px;">3</text>
<circle cx="350" cy="210" r="9" fill="green"/>
<circle cx="70" cy="230" r="9" fill="blue"/>
<text x="70" y="235" style="stroke:none; font-family:MS Shell Dlg 2, sans-serif; text-anchor: middle; fill:aqua; font-size: 16px;">2</text>
<circle cx="230" cy="230" r="9" fill="blue"/>
<text x="230" y="235" style="stroke:none; font-family:MS Shell Dlg 2, sans-serif; text-anchor: middle; fill:aqua; font-size: 16px;">4</text>
<circle cx="90" cy="250" r="9" fill="green"/>
<text x="90" y="255" style="stroke:none; font-family:MS Shell Dlg 2, sans-serif; text-anchor: middle; fill:lime; font-size: 16px;">1</text>
<circle cx="50" cy="270" r="9" fill="blue"/>
<circle cx="190" cy="290" r="9" fill="green"/>
<circle cx="230" cy="290" r="9" fill="blue"/>
<circle cx="290" cy="290" r="9" fill="green"/>
<circle cx="330" cy="290" r="9" fill="green"/>
<circle cx="30" cy="310" r="9" fill="blue"/>
<circle cx="50" cy="310" r="9" fill="green"/>
<circle cx="70" cy="310" r="9" fill="green"/>
<circle cx="110" cy="310" r="9" fill="green"/>
<circle cx="230" cy="310" r="9" fill="blue"/>
<circle cx="250" cy="310" r="9" fill="green"/>
<circle cx="30" cy="330" r="9" fill="blue"/>
<circle cx="50" cy="330" r="9" fill="blue"/>
<circle cx="70" cy="330" r="9" fill="green"/>
<circle cx="190" cy="330" r="9" fill="green"/>
<circle cx="230" cy="330" r="9" fill="blue"/>
<circle cx="290" cy="330" r="9" fill="blue"/>
<circle cx="330" cy="330" r="9" fill="green"/>
<circle cx="30" cy="350" r="9" fill="blue"/>
<circle cx="50" cy="350" r="9" fill="green"/>
<circle cx="210" cy="350" r="9" fill="blue"/>
</g></g></svg>
